<svg xmlns="http://www.w3.org/2000/svg" xmlns:xlink="http://www.w3.org/1999/xlink" viewBox="0 0 140.55 87.32"><defs><style>.cls-1{fill:url(#Безымянный_градиент_4);}.cls-2{font-size:80px;font-family:mr_KindlyJasmineG;letter-spacing:0.06em;}.cls-3{letter-spacing:0.04em;}</style><linearGradient id="Безымянный_градиент_4" x1="-6.4" y1="43.66" x2="113.25" y2="43.66" gradientUnits="userSpaceOnUse"><stop offset="0.27" stop-color="#fff"/><stop offset="0.54"/></linearGradient></defs><g id="Слой_2" data-name="Слой 2"><g id="Слой_1-2" data-name="Слой 1"><path class="cls-1" d="M21.52,17.72A16.27,16.27,0,0,1,28.6,19.4,12.32,12.32,0,0,1,33,23.28a13.53,13.53,0,0,1,2.12,5.36,22.85,22.85,0,0,1,.2,6.2A18.74,18.74,0,0,1,33,42.2,15.9,15.9,0,0,1,31,45,14.09,14.09,0,0,1,28,47.48a17.43,17.43,0,0,1-4,1.88,19.78,19.78,0,0,1-5.16.92c-.11,1.07-.19,2.12-.24,3.16s-.11,2.09-.16,3.16c-.11,2.35-.19,4.65-.24,6.92s0,4.47.08,6.6a.35.35,0,0,1-.12.4.44.44,0,0,1-.44.08,9.37,9.37,0,0,1-3.4-1.36,15,15,0,0,1-1.8-1.44,1.8,1.8,0,0,1-.4-1c-.11-.91-.17-2-.2-3.2s0-2.37,0-3.44V56.2q-.08-3.12-.08-6.24c0-2.08,0-4.05,0-5.92s.07-3.57.12-5.12.08-2.8.08-3.76a5.62,5.62,0,0,1,2.48-4.56,10.61,10.61,0,0,1,2.92-1.52,18.32,18.32,0,0,1,2.44-.64.85.85,0,0,1,1,1c-.37,3-.71,6-1,9s-.57,6.08-.84,9.12a9.85,9.85,0,0,0,5.08-3.36,17.14,17.14,0,0,0,2.76-5,26.75,26.75,0,0,0,1.36-6.48,15.55,15.55,0,0,0-.84-7,9.1,9.1,0,0,0-2.52-3.52A6.71,6.71,0,0,0,21,20.92a10.75,10.75,0,0,0-5.28,1.36,11.07,11.07,0,0,0-3.52,3.24A16.19,16.19,0,0,0,10,29.88,27.83,27.83,0,0,0,9,34.6a32.36,32.36,0,0,0-.32,4.32c0,1.33,0,2.37.08,3.12a1.31,1.31,0,0,1-.4,1,.9.9,0,0,1-1,.24,6,6,0,0,1-2.68-.92,11.8,11.8,0,0,1-1.8-1.4,3,3,0,0,1-.8-1.68A21.75,21.75,0,0,1,3,31.16a20,20,0,0,1,3.72-7A18.69,18.69,0,0,1,13,19.32,17.19,17.19,0,0,1,21.52,17.72Z"/><path class="cls-1" d="M53.52,50a.89.89,0,0,1,.52.48,1,1,0,0,1,0,.72A52.36,52.36,0,0,1,50.44,58a17,17,0,0,1-3.08,3.72A4.83,4.83,0,0,1,44.68,63a4.17,4.17,0,0,1-2.44-.64,4.67,4.67,0,0,1-1.92-3.16A28.61,28.61,0,0,1,39.6,54a48.24,48.24,0,0,1,0-5.64c.1-1.87.21-3.33.32-4.4a4.88,4.88,0,0,1,1.92-3.52,9.21,9.21,0,0,1,2.32-1.32,10.1,10.1,0,0,1,3.52-.68.56.56,0,0,1,.64.64q-.09.89-.24,2.64c-.11,1.17-.22,2.48-.32,3.92s-.2,2.93-.28,4.48-.15,3-.2,4.2a26.79,26.79,0,0,0,0,3.12c0,.83.16,1.27.32,1.32a14.3,14.3,0,0,0,1.72-2.16q.84-1.27,1.56-2.52t1.2-2.28c.32-.69.56-1.2.72-1.52a.38.38,0,0,1,.56-.24Zm-8.16-13.6a4.51,4.51,0,0,1-2.68-.76A2.24,2.24,0,0,1,41.6,33.8a2.33,2.33,0,0,1,1.08-1.92,4.39,4.39,0,0,1,2.68-.8,4.27,4.27,0,0,1,2.6.8A2.33,2.33,0,0,1,49,33.8,2.24,2.24,0,0,1,48,35.68,4.39,4.39,0,0,1,45.36,36.44Z"/><path class="cls-1" d="M80.68,50.52a1,1,0,0,1,0,.72A52.36,52.36,0,0,1,77.08,58a17.9,17.9,0,0,1-3,3.72A4.67,4.67,0,0,1,71.4,63,4.17,4.17,0,0,1,69,62.36a4.6,4.6,0,0,1-2-2.88,21.14,21.14,0,0,1-.76-4.6,44.6,44.6,0,0,1,0-5c.08-1.68.17-3.08.28-4.2a8,8,0,0,0,.08-2.44c-.11-.45-.3-.71-.56-.76-.59,0-1.12.31-1.6,1.08a11.93,11.93,0,0,0-1.24,2.84,32.5,32.5,0,0,0-.88,3.56,24.8,24.8,0,0,0-.44,3.4c-.11,1.76-.18,3.47-.2,5.12s0,3.07,0,4.24a.92.92,0,0,1-1,1,4.72,4.72,0,0,1-4.36-3.2,23.47,23.47,0,0,1-1.32-7.76c-.11-1.81-.13-3.59-.08-5.32s.13-3.13.24-4.2A4.8,4.8,0,0,1,56.8,39.8a14.79,14.79,0,0,1,2-1.4A6.77,6.77,0,0,1,62,37.64a.57.57,0,0,1,.64.64,15.69,15.69,0,0,0-.12,1.88c0,.88-.1,1.93-.2,3.16a14.48,14.48,0,0,1,2.76-3.88A5.58,5.58,0,0,1,69.2,37.8a4.32,4.32,0,0,1,3.48,1.28,7.16,7.16,0,0,1,1.48,2.8,14.17,14.17,0,0,1,.24,4c-.11,1.49-.2,3-.28,4.48s-.15,2.87-.2,4.12a25.33,25.33,0,0,0,0,3c0,.77.16,1.19.32,1.24A14.3,14.3,0,0,0,76,56.6q.84-1.27,1.56-2.52c.48-.83.89-1.59,1.24-2.28s.6-1.2.76-1.52.26-.35.48-.24h.16A.89.89,0,0,1,80.68,50.52Z"/><path class="cls-1" d="M103.2,27.56c.85-.16,1.42-.07,1.72.28a1.63,1.63,0,0,1,.4,1.16,1.75,1.75,0,0,1-.44,1.08c-.27.29-.51.36-.72.2a3.06,3.06,0,0,0-1.28-.48c-.59-.11-1.2-.2-1.84-.28s-1.26-.13-1.84-.16-1,0-1.2,0H95.52c-.8,0-1.63,0-2.48-.08h-1.8c-.62,0-1.22,0-1.8-.08q-.72,6.48-1.12,12.92t-.48,12.84v2.76c0,.83,0,1.19.16,1.08a14.3,14.3,0,0,0,1.72-2.16q.84-1.27,1.56-2.52c.48-.83.89-1.59,1.24-2.28l.76-1.52a.38.38,0,0,1,.56-.24h.08a.83.83,0,0,1,.56,1.2,45,45,0,0,1-5,8.68c-1.44,1.79-2.78,2.79-4,3a2,2,0,0,1-1.88-.64,6,6,0,0,1-1.08-1.84,16.4,16.4,0,0,1-.64-2.8q-.4-3.12-.52-6.92c-.08-2.53-.12-5.11-.12-7.72s0-5.12.08-7.52.1-4.51.16-6.32l-2,.12a18,18,0,0,0-2,.2c-.86.16-1.43.07-1.72-.28A1.41,1.41,0,0,1,75.36,28a2.26,2.26,0,0,1,.44-1.12c.24-.32.49-.37.76-.16a5.75,5.75,0,0,0,2.24.6c1.06.13,2,.23,2.8.28V26.28a5.59,5.59,0,0,1,2.48-4.56A9.7,9.7,0,0,1,87,20.24a22.22,22.22,0,0,1,2.44-.6.62.62,0,0,1,.72.16.77.77,0,0,1,.24.72c-.11,1.23-.24,2.43-.4,3.6s-.3,2.37-.4,3.6l6.84.16A47.68,47.68,0,0,0,103.2,27.56Z"/><path class="cls-1" d="M116.8,50a.89.89,0,0,1,.52.48,1,1,0,0,1,0,.72q-.89,1.92-1.68,3.48c-.54,1-1,2-1.52,2.76A15.45,15.45,0,0,1,111,61a12.84,12.84,0,0,1-3.68,2,7.7,7.7,0,0,1-5-.12,8.3,8.3,0,0,1-3.08-1.92,11.73,11.73,0,0,1-2.6-3.6,15.09,15.09,0,0,1-1.36-4.92,14.66,14.66,0,0,1,.64-6A13.23,13.23,0,0,1,98.2,41.6,12.17,12.17,0,0,1,101,39a7.24,7.24,0,0,1,3.2-1.12,6.9,6.9,0,0,1,3.36.44,7.34,7.34,0,0,1,2.24,1.48,6.57,6.57,0,0,1,1.12,1.68,4.61,4.61,0,0,1,.44,1.84,6,6,0,0,1-.52,2.4,6.33,6.33,0,0,1-1.84,2.4,7.73,7.73,0,0,1-2.8,1.4,10.53,10.53,0,0,1-4.48.12,3.88,3.88,0,0,1,0,.48,2.59,2.59,0,0,0,0,.48,22.59,22.59,0,0,0,.16,4.8,11.23,11.23,0,0,0,1.2,3.48,3.3,3.3,0,0,0,2.8,1.8,4.39,4.39,0,0,0,2.6-.48,10.23,10.23,0,0,0,2.2-1.52,18.51,18.51,0,0,0,2.16-2.24,42.12,42.12,0,0,0,2.12-3.64c.61-1.2,1-2,1.24-2.52a.38.38,0,0,1,.56-.24Zm-7.68-8.88a1.51,1.51,0,0,0-1.52-.32,4.92,4.92,0,0,0-2,1.16,11.26,11.26,0,0,0-2,2.4,12.73,12.73,0,0,0-1.52,3.4,7.39,7.39,0,0,0,3.4-.08,8.55,8.55,0,0,0,1.76-.68,4.28,4.28,0,0,0,1.48-1.32,5.88,5.88,0,0,0,.92-1.88,3.25,3.25,0,0,0,0-1.48A2.9,2.9,0,0,0,109.12,41.16Z"/><path class="cls-1" d="M136.64,43.16a2,2,0,0,1,.24,1.68,16.58,16.58,0,0,1-1.44,3c.05.64.08,1.32.08,2a16.64,16.64,0,0,1-.16,2.2,14.82,14.82,0,0,1-1.56,5.56,13.57,13.57,0,0,1-2.36,3.16,7.52,7.52,0,0,1-3.12,1.84,7.85,7.85,0,0,1-5-.32,7.54,7.54,0,0,1-3.32-3,12,12,0,0,1-1.64-4.6,15.64,15.64,0,0,1,.08-5.24,5.66,5.66,0,0,1,.32-1.2,8.52,8.52,0,0,1,.44-1.2,6.15,6.15,0,0,1,.76-1.28,6.8,6.8,0,0,1,.44-2.84,9,9,0,0,1,1.44-2.56A7.59,7.59,0,0,1,124,38.6a5.85,5.85,0,0,1,2.68-.8,6.88,6.88,0,0,1,5.28,1.8,10.83,10.83,0,0,1,3.2,5.88c.26-.48.49-.91.68-1.28s.33-.69.44-1a.18.18,0,0,1,.12-.2C136.44,43,136.53,43.05,136.64,43.16Zm-5,11a4.79,4.79,0,0,0,.2-1,8,8,0,0,1,.12-1c.05-.37.1-.77.16-1.2a9.35,9.35,0,0,1-3.84,1.2,8.7,8.7,0,0,1-3.76-.48q-.09,1-.12,2.52a13.42,13.42,0,0,0,.24,3,5.07,5.07,0,0,0,1,2.36,2.06,2.06,0,0,0,2.2.6l.68-.24a3.17,3.17,0,0,0,1-.72,6.63,6.63,0,0,0,1.12-1.72A13.83,13.83,0,0,0,131.68,54.2Zm-4.24-13.6q-1.77.16-2.64,2.4h.8a5.86,5.86,0,0,1,.88.08.6.6,0,0,1,.36.32.63.63,0,0,1,0,.56,14.06,14.06,0,0,0-.88,1.72A17.46,17.46,0,0,0,125,48.2a2.9,2.9,0,0,0,.88.84,6.54,6.54,0,0,0,.88.44,2.27,2.27,0,0,0,1,.24,6.07,6.07,0,0,0,2.44-.16,6.28,6.28,0,0,0,2-1q-.09-4.32-1.6-6.24C129.62,41.08,128.56,40.49,127.44,40.6Z"/><text class="cls-2" transform="translate(0 62.92)">P<tspan class="cls-3" x="39.52" y="0">inteo</tspan></text></g></g></svg>