<?xml version="1.0" encoding="utf-8"?>
<!-- Generator: Adobe Illustrator 24.1.2, SVG Export Plug-In . SVG Version: 6.00 Build 0)  -->
<svg version="1.1" id="Слой_1" xmlns="http://www.w3.org/2000/svg" xmlns:xlink="http://www.w3.org/1999/xlink" x="0px" y="0px"
	 viewBox="0 0 240 240" style="enable-background:new 0 0 240 240;" xml:space="preserve">
<style type="text/css">
	.st0{fill:#0CCE5B;}
	.st1{fill:#FBFBFB;}
</style>
<path class="st0" d="M240,120c0,66.3-53.7,120-120,120c-11.7,0-22.9-1.7-33.6-4.8c-16.7-4.8-31.9-13.2-44.7-24.3
	C16.2,188.9,0,156.3,0,120C0,53.7,53.7,0,120,0S240,53.7,240,120z"/>
<path class="st1" d="M200.5,78.5c-9-21.1-28-31.4-50.9-29.1c-9.3,0.9-18.3,3.1-27,6.3c-0.8,0.3-2,0.2-2.8-0.1
	c-3.7-1.5-7.3-3.5-11.1-4.8c-3.4-1.1-7.1-1.6-10.7-2.4h-6.3c-4.1,0.7-8.3,1.3-12.3,2.3c-13,3.1-24.6,9.1-35.9,16.3
	C47,74,50,81.1,53.8,87.7c2.6,4.5,2.7,8.8,1.8,13.7c-3.2,17.6-6.2,35.2-9,52.8c-1.9,11.8-3.3,23.6-5,35.4c-0.3,1.8-0.5,3.6-0.7,5.5
	V206c0.3,1.7,0.6,3.3,0.9,5c12.8,11.1,28,19.5,44.7,24.3c5.9-2,11.4-5,16.5-8.8c-8-12.7-9-39-5.8-50c16,3.9,32.2,4.7,48.4,1
	c19.2-4.4,35.6-13.3,47.1-29.9C207.3,125.9,210.8,102.8,200.5,78.5z M114,147.7c-3.9,0.3-7.9,0-12.3,0c0.7-4,1.5-7.5,2.2-11.1
	c2.6-14.6,5.2-29.2,7.8-43.8c0.5-2.6,0.7-5.3,1.3-7.8c0.2-0.8,1-1.9,1.8-2.1c18.6-5.7,33.5,3.8,35.3,23.2
	C152.1,129.8,131.1,146.4,114,147.7z"/>
</svg>
