<?xml version="1.0" encoding="utf-8"?>
<!-- Generator: Adobe Illustrator 24.1.2, SVG Export Plug-In . SVG Version: 6.00 Build 0)  -->
<svg version="1.1" id="Слой_1" xmlns="http://www.w3.org/2000/svg" xmlns:xlink="http://www.w3.org/1999/xlink" x="0px" y="0px"
	 viewBox="0 0 1000 1000" style="enable-background:new 0 0 1000 1000;" xml:space="preserve">
<style type="text/css">
	.st0{fill:#FAFAFA;}
</style>
<g>
	<ellipse class="st0" cx="517" cy="512.5" rx="396" ry="368.5"/>
	<path d="M500,10C229.4,10,10,229.4,10,500s219.4,490,490,490s490-219.4,490-490S770.6,10,500,10L500,10L500,10z M435.3,743.6
		c-49.3,49.3-129.6,49.3-179,0c-49.3-49.3-49.3-129.6,0-178.9l126.8-126.8c49.3-49.3,129.6-49.3,179,0c1.3,1.3,2.6,2.7,3.9,4.1
		c0.7,0.6,1.5,1.3,2.2,2c2,2,3.6,4.2,5,6.5c0.2,0.2,0.3,0.4,0.5,0.6l-0.1,0.1c6.1,11.5,4.3,26-5.4,35.6c-9.7,9.7-24.4,11.5-35.9,5.2
		c-0.8,0.8-8.7-7.1-13-11.3l0,0c-25.8-25.8-67.3-26-93.1-0.2l-127,127c-25.8,25.8-25.8,67.5,0,93.3l0,0c25.8,25.8,67.5,25.8,93.3,0
		l76.4-76.4c26.5,13,57.7,13.4,84.5,1.1L435.3,743.6L435.3,743.6L435.3,743.6z M743.6,435.3L616.9,562.1
		c-49.3,49.3-129.6,49.3-179,0c-1.3-1.3-2.6-2.7-3.9-4.1c-0.7-0.6-1.5-1.3-2.1-2c-2-2-3.6-4.2-5-6.5c-0.2-0.2-0.3-0.4-0.5-0.6
		l0.1-0.1c-6.1-11.5-4.3-26,5.4-35.6c9.7-9.7,24.4-11.4,35.9-5.2c0.8-0.8,8.7,7.1,13,11.3l0,0c25.8,25.8,67.3,26,93.1,0.2l127-127
		c25.8-25.8,25.8-67.5,0-93.3l0,0c-25.8-25.8-67.5-25.8-93.3,0L531,375.6c-26.4-12.9-57.7-13.4-84.5-1.1l118.1-118.1
		c49.3-49.3,129.6-49.3,179,0S793,386,743.6,435.3L743.6,435.3L743.6,435.3z"/>
</g>
</svg>
