<?xml version="1.0" encoding="iso-8859-1"?>
<!-- Generator: Adobe Illustrator 19.0.0, SVG Export Plug-In . SVG Version: 6.00 Build 0)  -->
<svg version="1.1" id="Capa_1" xmlns="http://www.w3.org/2000/svg" xmlns:xlink="http://www.w3.org/1999/xlink" x="0px" y="0px"
	 viewBox="0 0 512 512" style="enable-background:new 0 0 512 512;" xml:space="preserve">
<g>
	<g>
		<path d="M316,30h-28.154l-3.545-9.99C280.053,8.042,268.686,0,256,0c-12.686,0-24.053,8.042-28.301,20.01L224.154,30H196
			c-16.569,0-30,13.431-30,30v15c0,8.284,6.716,15,15,15h150c8.284,0,15-6.716,15-15V60C346,43.431,332.569,30,316,30z"/>
	</g>
</g>
<g>
	<g>
		<path d="M305.513,330.483l38.335-37.5l-52.939-7.734c-4.894-0.703-9.113-3.779-11.296-8.218L256,228.999l-23.613,48.032
			c-2.183,4.438-6.401,7.515-11.294,8.218l-52.939,7.734l38.335,37.5c3.516,3.442,5.127,8.394,4.292,13.242l-9.038,52.91
			l47.256-24.946c2.197-1.157,4.6-1.729,7.002-1.729s4.805,0.571,7.002,1.729l47.256,24.946l-9.038-52.91
			C300.386,338.876,301.997,333.925,305.513,330.483z"/>
	</g>
</g>
<g>
	<g>
		<path d="M406,60h-30v15c0,24.814-20.186,45-45,45H181c-24.814,0-45-20.186-45-45V60h-30c-24.814,0-45,20.186-45,45v360
			c0,24.814,20.186,47,45,47h300c24.814,0,45-22.186,45-47V105C451,80.186,430.814,60,406,60z M386.488,293.232l-54.375,53.203
			l12.832,75.146c0.967,5.625-1.348,11.309-5.977,14.663c-4.614,3.354-10.767,3.794-15.806,1.128L256,401.924l-67.163,35.449
			c-5.045,2.657-11.169,2.23-15.806-1.128c-4.629-3.354-6.943-9.038-5.977-14.663l12.832-75.146l-54.375-53.203
			c-4.072-3.984-5.537-9.946-3.779-15.366c1.772-5.42,6.46-9.375,12.1-10.195l75.117-10.957l33.589-68.335
			c5.039-10.254,21.885-10.254,26.924,0l33.589,68.335l75.117,10.957c5.64,0.82,10.327,4.775,12.1,10.195
			C392.025,283.286,390.561,289.248,386.488,293.232z"/>
	</g>
</g>
<g>
</g>
<g>
</g>
<g>
</g>
<g>
</g>
<g>
</g>
<g>
</g>
<g>
</g>
<g>
</g>
<g>
</g>
<g>
</g>
<g>
</g>
<g>
</g>
<g>
</g>
<g>
</g>
<g>
</g>
</svg>
