<?xml version="1.0" encoding="iso-8859-1"?>
<!-- Generator: Adobe Illustrator 19.0.0, SVG Export Plug-In . SVG Version: 6.00 Build 0)  -->
<svg version="1.1" id="Capa_1" xmlns="http://www.w3.org/2000/svg" xmlns:xlink="http://www.w3.org/1999/xlink" x="0px" y="0px"
	 viewBox="0 0 512 512" style="enable-background:new 0 0 512 512;" xml:space="preserve">
<g>
	<g>
		<g>
			<path d="M160,85.333h192c5.888,0,10.667-4.779,10.667-10.667V53.333c0-17.643-14.357-32-32-32h-37.845
				C285.291,8.32,271.317,0,256,0s-29.291,8.32-36.821,21.333h-37.845c-17.643,0-32,14.357-32,32v21.333
				C149.333,80.555,154.112,85.333,160,85.333z"/>
			<path d="M416,42.667h-21.333c-5.888,0-10.667,4.779-10.667,10.667v21.333c0,17.643-14.357,32-32,32H160
				c-17.643,0-32-14.357-32-32V53.333c0-5.888-4.779-10.667-10.667-10.667H96c-17.643,0-32,14.357-32,32V480
				c0,17.643,14.357,32,32,32h320c17.643,0,32-14.357,32-32V74.667C448,57.024,433.643,42.667,416,42.667z"/>
		</g>
	</g>
</g>
<g>
</g>
<g>
</g>
<g>
</g>
<g>
</g>
<g>
</g>
<g>
</g>
<g>
</g>
<g>
</g>
<g>
</g>
<g>
</g>
<g>
</g>
<g>
</g>
<g>
</g>
<g>
</g>
<g>
</g>
</svg>
